<svg width="80" height="80" viewBox="0 0 80 80" fill="none" xmlns="http://www.w3.org/2000/svg">
<path d="M40 80C62.0914 80 80 62.0914 80 40C80 17.9086 62.0914 0 40 0C17.9086 0 0 17.9086 0 40C0 62.0914 17.9086 80 40 80Z" fill="#F1F2F5"/>
<path d="M40.0001 53.3371C49.8276 53.3371 57.7944 45.3703 57.7944 35.5428C57.7944 25.7153 49.8276 17.7485 40.0001 17.7485C30.1726 17.7485 22.2058 25.7153 22.2058 35.5428C22.2058 45.3703 30.1726 53.3371 40.0001 53.3371Z" fill="#6E7A99" fill-opacity="0.2"/>
<path d="M40 80.0002C51.9657 80.0002 62.6857 74.743 70.0229 66.423C66.1943 57.4059 57.5086 52.9602 50.2171 55.5316C48.3429 56.1945 45.5086 57.3259 40.0114 57.3259C34.5029 57.3259 31.68 56.1945 29.8057 55.5316C22.5143 52.9716 13.8171 57.4059 10 66.423C17.3143 74.743 28.0343 80.0002 40 80.0002Z" fill="#6E7A99" fill-opacity="0.2"/>
</svg>
